# 3ds Max Wavefront OBJ Exporter v0.97b - (c)2007 guruware
# 创建的文件:29.02.2020 23:54:05

mtllib haizei.mtl

#
# object dao
#

v  -289.0865 -227.7454 912.8307
v  -288.8341 -207.5294 920.4859
v  -286.8781 -229.7333 931.6053
v  -288.5475 -236.7299 912.5183
v  -289.2071 -236.3802 902.6682
v  -286.8948 -262.5763 924.2124
v  -288.5988 -263.0102 901.2200
v  -289.1102 -259.4612 888.0554
v  -286.1289 -299.8623 907.2810
v  -285.5328 -301.8189 923.2733
v  -289.3227 -278.8091 887.3091
v  -285.1908 -262.4676 942.6533
v  -284.9392 -231.3340 942.2635
v  -284.9367 -302.9838 944.9805
v  -285.3040 -206.8427 943.4716
v  -283.5589 -344.1208 915.3781
v  -285.1444 -354.9705 948.8423
v  -286.0466 -382.5585 897.5267
v  -285.5035 -406.2163 959.9698
v  -285.2242 -466.1198 924.8793
v  -287.0556 -417.9770 860.8118
v  -285.2689 -526.9514 889.5139
v  -287.6142 -460.1171 805.3958
v  -285.1582 -573.9338 859.6112
v  -287.9212 -494.1456 766.1279
v  -288.0377 -528.5150 733.4531
v  -285.3251 -611.7718 834.4917
v  -287.9847 -572.3806 705.8373
v  -285.3715 -647.7975 808.6711
v  -287.5157 -621.9033 687.2592
v  -284.9123 -688.0137 777.2214
v  -286.4530 -678.7476 682.9590
v  -285.0670 -723.7562 749.8799
v  -286.2583 -724.7595 693.9035
v  -285.6052 -763.2891 719.5551
v  -290.0108 -207.7590 912.8240
v  -290.0108 -228.2262 900.6964
v  -290.9359 -227.7454 912.8307
v  -291.1875 -207.5294 920.4859
v  -290.8154 -236.3802 902.6682
v  -290.0108 -240.2943 891.4620
v  -290.0108 -240.5912 901.1732
v  -291.4750 -236.7299 912.5183
v  -290.9115 -259.4612 888.0554
v  -290.0108 -261.7650 877.9686
v  -290.0108 -264.8777 890.2202
v  -291.4237 -263.0102 901.2200
v  -290.6997 -278.8091 887.3091
v  -290.0108 -272.4198 885.7423
v  -290.0108 -285.4628 873.3145
v  -290.0108 -285.7161 885.2813
v  -293.8935 -299.8623 907.2810
v  -290.0108 -301.2686 900.6171
v  -296.4635 -344.1208 915.3781
v  -290.0108 -342.1624 905.5952
v  -293.9758 -382.5585 897.5267
v  -290.0108 -374.5913 888.5486
v  -292.9668 -417.9770 860.8118
v  -290.0108 -408.9771 852.8976
v  -292.4073 -460.1171 805.3958
v  -290.0108 -451.7813 798.3190
v  -292.1012 -494.1456 766.1279
v  -290.0108 -486.4237 758.8976
v  -291.9847 -528.5150 733.4531
v  -290.0108 -519.8516 724.0659
v  -292.0376 -572.3806 705.8373
v  -290.0108 -564.6219 695.5551
v  -292.5067 -621.9033 687.2592
v  -290.0108 -615.6442 676.4160
v  -293.5694 -678.7476 682.9590
v  -290.0108 -672.2864 670.0227
v  -293.7640 -724.7595 693.9035
v  -290.0107 -732.5939 682.1991
v  -294.4407 -763.0775 719.7246
v  -290.0107 -775.2386 710.6947
v  -293.1443 -229.7333 931.6053
v  -293.1277 -262.5763 924.2124
v  -294.4896 -301.8189 923.2733
v  -294.8316 -262.4676 942.6533
v  -295.0833 -231.3340 942.2635
v  -295.0857 -302.9838 944.9805
v  -294.8772 -354.9705 948.8423
v  -294.5189 -406.2163 959.9698
v  -294.7974 -466.1198 924.8793
v  -294.7526 -526.9514 889.5139
v  -294.8642 -573.9338 859.6112
v  -294.6972 -611.7718 834.4917
v  -294.6508 -647.7975 808.6711
v  -295.1093 -688.0137 777.2214
v  -294.9546 -723.7562 749.8799
v  -294.7176 -206.8427 943.4716
v  -283.0716 -44.0149 954.1469
v  -282.6612 -82.8656 947.6617
v  -277.0804 -81.9028 933.9756
v  -277.7721 -40.4950 934.0764
v  -282.5094 -97.2351 945.2631
v  -276.8246 -97.2182 933.9382
v  -277.8498 -83.4032 918.1360
v  -282.7368 -98.0701 919.4433
v  -283.3346 -161.0699 917.3641
v  -276.6980 -161.6838 931.5768
v  -282.8369 -162.3531 942.8583
v  -283.4994 -207.8471 949.3513
v  -279.7918 -211.0490 928.1968
v  -284.4940 -207.5668 907.3628
v  -278.7721 -41.7339 913.0891
v  -296.9510 -44.0149 954.1469
v  -302.2503 -40.4950 934.0764
v  -302.9422 -81.9103 933.9757
v  -297.1619 -82.8467 947.6274
v  -297.2399 -97.2091 945.2161
v  -303.1981 -97.2284 933.9385
v  -302.1812 -83.4199 918.1379
v  -297.2863 -98.0929 919.4457
v  -296.6867 -161.0787 917.3624
v  -303.3244 -161.6838 931.5768
v  -297.1845 -162.3531 942.8583
v  -296.5231 -207.8471 949.3513
v  -300.2306 -211.0490 928.1968
v  -295.5284 -207.5668 907.3628
v  -301.2206 -41.7979 913.1472
v  -284.3025 -44.6248 902.6727
v  -295.7184 -44.6292 902.6815
v  -296.3726 -85.4383 909.1578
v  -284.1262 -85.4218 909.1577
# 125 vertices

vn 0.9931 0.0306 -0.1136
vn 0.9919 0.0633 -0.1100
vn 0.9960 0.0620 -0.0645
vn 0.9953 0.0208 -0.0947
vn 0.9968 0.0301 -0.0744
vn 0.9993 0.0132 -0.0353
vn 0.9957 0.0544 -0.0748
vn 0.9988 0.0355 -0.0329
vn 0.9930 0.0489 -0.1072
vn 0.9955 0.0202 -0.0921
vn 0.9951 0.0367 -0.0922
vn 0.9835 -0.0102 -0.1805
vn 0.9996 0.0047 -0.0272
vn 0.9842 0.0233 -0.1755
vn 0.9883 0.0109 -0.1521
vn 0.9982 0.0523 -0.0308
vn 0.9976 0.0356 0.0588
vn 0.9996 -0.0061 -0.0278
vn 0.9969 -0.0751 0.0229
vn 0.9999 -0.0097 -0.0124
vn 1.0000 0.0080 -0.0057
vn 0.9996 0.0006 -0.0281
vn 0.9997 0.0111 -0.0203
vn 0.9998 0.0114 -0.0188
vn 0.9998 0.0133 -0.0173
vn 0.9997 0.0126 -0.0188
vn 0.9997 0.0136 -0.0179
vn 0.9998 0.0087 -0.0197
vn 0.9998 0.0119 -0.0170
vn 0.9998 0.0111 -0.0173
vn 0.9998 0.0149 -0.0145
vn 0.9997 0.0216 -0.0130
vn 0.9997 0.0198 -0.0144
vn 0.9998 0.0076 -0.0156
vn 0.9998 -0.0008 -0.0213
vn 0.9998 0.0027 -0.0213
vn -0.9959 0.0461 -0.0778
vn -0.9872 0.0456 -0.1530
vn -0.9938 0.0790 -0.0789
vn -0.9925 0.0744 -0.0972
vn -0.9826 -0.1857 -0.0057
vn -0.9841 -0.1626 -0.0717
vn -0.9673 0.1742 -0.1841
vn -0.9847 0.1285 -0.1173
vn -0.9823 -0.1818 -0.0462
vn -0.9757 -0.1988 -0.0916
vn -0.9871 0.0781 -0.1400
vn -0.9890 0.0755 -0.1271
vn -0.9924 0.0851 -0.0893
vn -0.9951 -0.0986 -0.0021
vn -0.9794 -0.0395 -0.1982
vn -0.8280 -0.3938 -0.3993
vn -0.8670 -0.0405 -0.4966
vn -0.8265 -0.0680 -0.5588
vn -0.8370 0.1850 -0.5150
vn -0.9467 0.1499 -0.2851
vn -0.9495 0.2123 -0.2309
vn -0.9708 0.1725 -0.1664
vn -0.9709 0.1859 -0.1512
vn -0.9768 0.1686 -0.1322
vn -0.9768 0.1581 -0.1446
vn -0.9810 0.1457 -0.1280
vn -0.9809 0.1321 -0.1425
vn -0.9882 0.1104 -0.1059
vn -0.9879 0.0835 -0.1307
vn -0.9878 0.0838 -0.1315
vn -0.9872 0.0642 -0.1462
vn -0.9802 0.0696 -0.1855
vn -0.9781 0.0338 -0.2056
vn -0.9673 0.0284 -0.2519
vn -0.9531 -0.0662 -0.2953
vn -0.9609 -0.0548 -0.2714
vn -0.9662 -0.1321 -0.2214
vn -0.9550 -0.1648 -0.2466
vn -0.9919 0.0633 -0.1100
vn -0.9960 0.0620 -0.0645
vn -0.9953 0.0208 -0.0947
vn -0.9968 0.0301 -0.0744
vn -0.9993 0.0132 -0.0353
vn -0.9957 0.0544 -0.0748
vn -0.9988 0.0355 -0.0329
vn -0.9930 0.0489 -0.1072
vn -0.9982 0.0523 -0.0308
vn -0.9931 0.0306 -0.1136
vn -0.9955 0.0202 -0.0921
vn -0.9951 0.0367 -0.0922
vn -0.9835 -0.0102 -0.1805
vn -0.9996 0.0047 -0.0272
vn -0.9976 0.0356 0.0588
vn -0.9996 -0.0061 -0.0278
vn -0.9969 -0.0752 0.0229
vn -0.9999 -0.0097 -0.0124
vn -1.0000 0.0080 -0.0057
vn -0.9996 0.0006 -0.0281
vn -0.9997 0.0110 -0.0203
vn -0.9998 0.0114 -0.0188
vn -0.9998 0.0134 -0.0173
vn -0.9997 0.0126 -0.0188
vn -0.9997 0.0136 -0.0179
vn -0.9998 0.0087 -0.0197
vn -0.9998 0.0119 -0.0170
vn -0.9998 0.0111 -0.0173
vn -0.9998 0.0149 -0.0145
vn -0.9997 0.0216 -0.0130
vn -0.9997 0.0198 -0.0144
vn -0.9998 0.0076 -0.0156
vn -0.9998 -0.0008 -0.0212
vn -0.9998 0.0033 -0.0213
vn 0.0006 -0.6086 0.7934
vn 0.0000 -0.6085 0.7935
vn 0.0000 -0.6076 0.7943
vn 0.0000 -0.6160 0.7877
vn 0.0000 -0.5826 0.8128
vn 0.0000 -0.5531 0.8331
vn 0.0000 -0.5369 0.8436
vn 0.0000 -0.5026 0.8645
vn 0.0000 -0.5054 0.8629
vn 0.0000 0.2122 0.9772
vn 0.0000 0.0741 0.9973
vn 0.0000 0.0573 0.9984
vn 0.0000 0.0125 0.9999
vn 0.0000 -0.0493 0.9988
vn -0.0000 0.9996 -0.0299
vn 0.9546 -0.0590 -0.2920
vn 0.9615 -0.0597 -0.2683
vn 0.9681 0.0368 -0.2478
vn 0.9772 0.0238 -0.2111
vn 0.9804 0.0772 -0.1810
vn 0.9868 0.0568 -0.1515
vn 0.9878 0.0839 -0.1313
vn 0.9879 0.0833 -0.1308
vn 0.9882 0.1103 -0.1059
vn 0.9810 0.1321 -0.1424
vn 0.9810 0.1426 -0.1312
vn 0.9768 0.1608 -0.1413
vn 0.9768 0.1686 -0.1322
vn 0.9709 0.1859 -0.1511
vn 0.9709 0.1725 -0.1664
vn 0.9495 0.2123 -0.2309
vn 0.9467 0.1498 -0.2850
vn 0.8370 0.1850 -0.5150
vn 0.8265 -0.0680 -0.5587
vn 0.8671 -0.0405 -0.4965
vn 0.8280 -0.3937 -0.3993
vn 0.9794 -0.0394 -0.1981
vn 0.9951 -0.0985 -0.0021
vn 0.9924 0.0850 -0.0892
vn 0.9890 0.0754 -0.1270
vn 0.9871 0.0780 -0.1400
vn 0.9758 -0.1988 -0.0915
vn 0.9823 -0.1818 -0.0462
vn 0.9847 0.1285 -0.1173
vn 0.9674 0.1741 -0.1840
vn 0.9841 -0.1624 -0.0717
vn 0.9826 -0.1855 -0.0057
vn 0.9925 0.0743 -0.0972
vn 0.9938 0.0789 -0.0788
vn 0.9959 0.0460 -0.0777
vn 0.9872 0.0456 -0.1530
vn 0.0011 -0.5959 0.8031
vn 0.9662 -0.1313 -0.2219
vn 0.9539 -0.1667 -0.2495
vn 0.9260 -0.0526 0.3739
vn 0.9661 0.0155 0.2578
vn 0.8936 0.0138 0.4486
vn 0.9986 0.0168 -0.0501
vn 0.8824 -0.3244 -0.3408
vn 0.9259 0.0037 -0.3779
vn 0.9062 0.0173 -0.4224
vn 0.8936 -0.0147 0.4486
vn 0.8787 -0.0220 0.4769
vn 0.8756 0.0557 0.4798
vn 0.9803 -0.0740 0.1830
vn 0.9728 -0.0454 -0.2271
vn 0.9051 0.0677 -0.4197
vn 0.9987 0.0168 -0.0486
vn 0.9986 0.0160 -0.0500
vn -0.9661 0.0155 0.2578
vn -0.9207 -0.0598 0.3857
vn -0.8841 0.0136 0.4671
vn -0.9986 0.0168 -0.0496
vn -0.8824 -0.3247 -0.3406
vn -0.9258 0.0037 -0.3779
vn -0.9062 0.0173 -0.4224
vn -0.8841 -0.0154 0.4671
vn -0.8786 -0.0180 0.4771
vn -0.8756 0.0558 0.4798
vn -0.9803 -0.0740 0.1830
vn -0.9051 0.0677 -0.4198
vn -0.9728 -0.0454 -0.2271
vn -0.9986 0.0168 -0.0502
vn -0.9986 0.0171 -0.0496
vn 0.0000 -0.9863 -0.1648
vn 0.0000 -0.9887 0.1497
vn 0.0000 0.1413 0.9900
vn 0.0000 -0.0362 0.9993
vn -0.0033 -0.0369 0.9993
vn -0.0034 -0.1647 0.9863
vn -0.0025 -0.1656 0.9862
vn -0.0025 -0.1647 0.9863
vn 0.0000 -0.1656 0.9862
vn -0.0000 0.9850 0.1727
vn -0.0000 0.9981 -0.0621
vn -0.0030 0.9983 -0.0588
vn -0.0034 0.9640 -0.2657
vn -0.0006 0.9652 -0.2614
vn 0.0008 -0.6309 -0.7759
vn 0.0009 -0.6309 -0.7759
vn -0.0002 0.0331 -0.9995
vn 0.0001 0.0330 -0.9995
vn -0.0000 0.2103 -0.9776
vn 0.0002 -0.1567 -0.9876
vn -0.0007 -0.1570 -0.9876
vn 0.8255 -0.0851 -0.5579
vn 0.8868 -0.0362 -0.4608
vn 0.8098 -0.3140 -0.4955
vn -0.8272 -0.3173 -0.4637
vn -0.8434 -0.0447 -0.5355
vn -0.8900 -0.0575 -0.4523
vn -0.9842 0.0234 -0.1755
vn -0.9883 0.0109 -0.1521
# 221 vertex normals

vt 0.3980 0.7519 0.0000
vt 0.3979 0.7396 0.0000
vt 0.4080 0.7581 0.0000
vt 0.3977 0.7612 0.0000
vt 0.3894 0.7588 0.0000
vt 0.4068 0.7814 0.0000
vt 0.3954 0.7827 0.0000
vt 0.3847 0.7771 0.0000
vt 0.3959 0.8149 0.0000
vt 0.4071 0.8167 0.0000
vt 0.3837 0.7930 0.0000
vt 0.4182 0.7801 0.0000
vt 0.4182 0.7597 0.0000
vt 0.4182 0.8186 0.0000
vt 0.4182 0.7396 0.0000
vt 0.3927 0.8516 0.0000
vt 0.4182 0.8613 0.0000
vt 0.3794 0.8687 0.0000
vt 0.4182 0.9311 0.0000
vt 0.3642 0.9311 0.0000
vt 0.3600 0.8630 0.0000
vt 0.3123 0.9311 0.0000
vt 0.3109 0.8463 0.0000
vt 0.2691 0.9311 0.0000
vt 0.2694 0.8364 0.0000
vt 0.2308 0.8311 0.0000
vt 0.2309 0.9311 0.0000
vt 0.1883 0.8337 0.0000
vt 0.1890 0.9311 0.0000
vt 0.1463 0.8450 0.0000
vt 0.1463 0.9311 0.0000
vt 0.1063 0.8694 0.0000
vt 0.1066 0.9311 0.0000
vt 0.0883 0.8988 0.0000
vt 0.0805 0.9311 0.0000
vt 0.4656 0.9740 0.0000
vt 0.4536 0.9740 0.0000
vt 0.4536 0.9818 0.0000
vt 0.4656 0.9818 0.0000
vt 0.4385 0.9818 0.0000
vt 0.4385 0.9740 0.0000
vt 0.4328 0.9740 0.0000
vt 0.4328 0.9818 0.0000
vt 0.4254 0.9818 0.0000
vt 0.4254 0.9740 0.0000
vt 0.4147 0.9740 0.0000
vt 0.4147 0.9818 0.0000
vt 0.4023 0.9819 0.0000
vt 0.4081 0.9740 0.0000
vt 0.4023 0.9644 0.0000
vt 0.3982 0.9740 0.0000
vt 0.3912 0.9818 0.0000
vt 0.3912 0.9740 0.0000
vt 0.3640 0.9818 0.0000
vt 0.3640 0.9740 0.0000
vt 0.3368 0.9818 0.0000
vt 0.3368 0.9740 0.0000
vt 0.3102 0.9818 0.0000
vt 0.3102 0.9740 0.0000
vt 0.2740 0.9818 0.0000
vt 0.2740 0.9740 0.0000
vt 0.2322 0.9818 0.0000
vt 0.2322 0.9740 0.0000
vt 0.1938 0.9818 0.0000
vt 0.1938 0.9740 0.0000
vt 0.1594 0.9818 0.0000
vt 0.1594 0.9740 0.0000
vt 0.1262 0.9818 0.0000
vt 0.1262 0.9740 0.0000
vt 0.0852 0.9818 0.0000
vt 0.0852 0.9740 0.0000
vt 0.0461 0.9818 0.0000
vt 0.0461 0.9740 0.0000
vt 0.0099 0.9818 0.0000
vt 0.0099 0.9740 0.0000
vt 0.3980 0.7520 0.0000
vt 0.4081 0.7581 0.0000
vt 0.3895 0.7589 0.0000
vt 0.4069 0.7814 0.0000
vt 0.3954 0.7828 0.0000
vt 0.3837 0.7931 0.0000
vt 0.3927 0.8517 0.0000
vt 0.3980 0.7397 0.0000
vt 0.4183 0.7801 0.0000
vt 0.4183 0.7597 0.0000
vt 0.4183 0.8186 0.0000
vt 0.4183 0.8613 0.0000
vt 0.3794 0.8688 0.0000
vt 0.4183 0.9311 0.0000
vt 0.3600 0.8631 0.0000
vt 0.2308 0.9311 0.0000
vt 0.1889 0.9311 0.0000
vt 0.1464 0.8451 0.0000
vt 0.1064 0.8695 0.0000
vt 0.0082 0.9885 0.0000
vt 0.0082 0.9955 0.0000
vt 0.0480 0.9955 0.0000
vt 0.0480 0.9885 0.0000
vt 0.0842 0.9885 0.0000
vt 0.0842 0.9955 0.0000
vt 0.1251 0.9885 0.0000
vt 0.1251 0.9955 0.0000
vt 0.1608 0.9885 0.0000
vt 0.1608 0.9955 0.0000
vt 0.1973 0.9885 0.0000
vt 0.1973 0.9955 0.0000
vt 0.2422 0.9885 0.0000
vt 0.2422 0.9955 0.0000
vt 0.2989 0.9885 0.0000
vt 0.2989 0.9955 0.0000
vt 0.3550 0.9885 0.0000
vt 0.3550 0.9955 0.0000
vt 0.3975 0.9885 0.0000
vt 0.3975 0.9955 0.0000
vt 0.4399 0.9885 0.0000
vt 0.4399 0.9955 0.0000
vt 0.4780 0.9885 0.0000
vt 0.4780 0.9955 0.0000
vt 0.4983 0.9885 0.0000
vt 0.4983 0.9955 0.0000
vt 0.5184 0.9885 0.0000
vt 0.5184 0.9955 0.0000
vt 0.5373 0.9955 0.0000
vt 0.5373 0.9885 0.0000
vt 0.5452 0.9933 0.0000
vt 0.0024 0.9917 0.0000
vt 0.0096 0.9818 0.0000
vt 0.0096 0.9740 0.0000
vt 0.1199 0.9379 0.0000
vt 0.0954 0.9379 0.0000
vt 0.0954 0.9521 0.0000
vt 0.1199 0.9521 0.0000
vt 0.0864 0.9379 0.0000
vt 0.0864 0.9521 0.0000
vt 0.0954 0.9657 0.0000
vt 0.0864 0.9657 0.0000
vt 0.0473 0.9657 0.0000
vt 0.0473 0.9521 0.0000
vt 0.0473 0.9379 0.0000
vt 0.0075 0.9379 0.0000
vt 0.0075 0.9521 0.0000
vt 0.0075 0.9657 0.0000
vt 0.1199 0.9657 0.0000
vt 0.1318 0.9498 0.0000
vt 0.1587 0.9498 0.0000
vt 0.1587 0.9395 0.0000
vt 0.1318 0.9395 0.0000
vt 0.1776 0.9395 0.0000
vt 0.1776 0.9498 0.0000
vt 0.2124 0.9498 0.0000
vt 0.2122 0.9395 0.0000
vt 0.2439 0.9395 0.0000
vt 0.2441 0.9498 0.0000
vt 0.2527 0.9498 0.0000
vt 0.2525 0.9395 0.0000
vt 0.2760 0.9498 0.0000
vt 0.2758 0.9395 0.0000
vt 0.2991 0.9498 0.0000
vt 0.2991 0.9395 0.0000
vt 0.3193 0.9395 0.0000
vt 0.3193 0.9502 0.0000
vt 0.3242 0.9502 0.0000
vt 0.3242 0.9395 0.0000
vt 0.3500 0.9395 0.0000
vt 0.3501 0.9498 0.0000
vt 0.3575 0.9498 0.0000
vt 0.3575 0.9395 0.0000
vt 0.3913 0.9395 0.0000
vt 0.3913 0.9498 0.0000
vt 0.4217 0.9395 0.0000
vt 0.4217 0.9498 0.0000
vt 0.0960 0.8400 0.0000
vt 0.0951 0.8303 0.0000
vt 0.1386 0.8290 0.0000
vt 0.1402 0.8403 0.0000
vt 0.0805 0.8394 0.0000
vt 0.0806 0.8395 0.0000
vt 0.0961 0.8401 0.0000
vt 0.0951 0.8304 0.0000
vt 0.1402 0.8402 0.0000
vt 0.1386 0.8289 0.0000
vt 0.4183 0.7396 0.0000
# 182 texture coords

g dao
usemtl sarquiss001_body_d
s off
f 1/1/1 2/2/1 3/3/1 
f 1/1/2 3/3/2 4/4/2 
f 1/1/3 4/4/3 5/5/3 
f 4/4/4 3/3/4 6/6/4 
f 6/6/5 7/7/5 4/4/5 
f 8/8/6 4/4/6 7/7/6 
f 9/9/7 7/7/7 6/6/7 
f 6/6/8 10/10/8 9/9/8 
f 11/11/9 7/7/9 9/9/9 
f 12/12/10 6/6/10 3/3/10 
f 10/10/11 6/6/11 12/12/11 
f 3/3/12 13/13/12 12/12/12 
f 12/12/13 14/14/13 10/10/13 
f 15/15/14 13/13/14 3/3/14 
f 2/2/15 15/15/15 3/3/15 
f 16/16/16 9/9/16 10/10/16 
f 16/16/17 10/10/17 17/17/17 
f 10/10/18 14/14/18 17/17/18 
f 18/18/19 16/16/19 17/17/19 
f 17/17/20 19/19/20 18/18/20 
f 18/18/21 19/19/21 20/20/21 
f 20/20/22 21/21/22 18/18/22 
f 21/21/23 20/20/23 22/22/23 
f 22/22/24 23/23/24 21/21/24 
f 23/23/25 22/22/25 24/24/25 
f 24/24/26 25/25/26 23/23/26 
f 26/26/27 25/25/27 24/24/27 
f 24/24/28 27/27/28 26/26/28 
f 28/28/29 26/26/29 27/27/29 
f 27/27/30 29/29/30 28/28/30 
f 30/30/31 28/28/31 29/29/31 
f 29/29/32 31/31/32 30/30/32 
f 32/32/33 30/30/33 31/31/33 
f 31/31/34 33/33/34 32/32/34 
f 34/34/35 32/32/35 33/33/35 
f 33/33/36 35/35/36 34/34/36 
f 36/36/37 37/37/37 38/38/37 
f 38/38/38 39/39/38 36/36/38 
f 40/40/39 38/38/39 37/37/39 
f 37/37/40 41/41/40 40/40/40 
f 40/40/41 41/41/41 42/42/41 
f 42/42/42 43/43/42 40/40/42 
f 44/44/43 43/43/43 42/42/43 
f 42/42/44 45/45/44 44/44/44 
f 44/44/45 45/45/45 46/46/45 
f 46/46/46 47/47/46 44/44/46 
f 48/48/47 47/47/47 46/46/47 
f 46/46/48 49/49/48 48/48/48 
f 49/49/49 50/50/49 48/48/49 
f 50/50/50 51/51/50 48/48/50 
f 52/52/51 48/48/51 51/51/51 
f 51/51/52 53/53/52 52/52/52 
f 54/54/53 52/52/53 53/53/53 
f 53/53/54 55/55/54 54/54/54 
f 56/56/55 54/54/55 55/55/55 
f 55/55/56 57/57/56 56/56/56 
f 58/58/57 56/56/57 57/57/57 
f 57/57/58 59/59/58 58/58/58 
f 60/60/59 58/58/59 59/59/59 
f 59/59/60 61/61/60 60/60/60 
f 62/62/61 60/60/61 61/61/61 
f 61/61/62 63/63/62 62/62/62 
f 64/64/63 62/62/63 63/63/63 
f 63/63/64 65/65/64 64/64/64 
f 66/66/65 64/64/65 65/65/65 
f 65/65/66 67/67/66 66/66/66 
f 68/68/67 66/66/67 67/67/67 
f 67/67/68 69/69/68 68/68/68 
f 70/70/69 68/68/69 69/69/69 
f 69/69/70 71/71/70 70/70/70 
f 72/72/71 70/70/71 71/71/71 
f 71/71/72 73/73/72 72/72/72 
f 74/74/73 72/72/73 73/73/73 
f 73/73/74 75/75/74 74/74/74 
f 38/76/75 43/4/75 76/77/75 
f 38/76/76 40/78/76 43/4/76 
f 77/79/77 76/77/77 43/4/77 
f 43/4/78 47/80/78 77/79/78 
f 44/8/79 47/80/79 43/4/79 
f 77/79/80 47/80/80 52/9/80 
f 52/9/81 78/10/81 77/79/81 
f 48/81/82 52/9/82 47/80/82 
f 54/82/83 78/10/83 52/9/83 
f 38/76/84 76/77/84 39/83/84 
f 76/77/85 77/79/85 79/84/85 
f 79/84/86 77/79/86 78/10/86 
f 79/84/87 80/85/87 76/77/87 
f 78/10/88 81/86/88 79/84/88 
f 54/82/89 82/87/89 78/10/89 
f 82/87/90 81/86/90 78/10/90 
f 82/87/91 54/82/91 56/88/91 
f 56/88/92 83/89/92 82/87/92 
f 84/20/93 83/89/93 56/88/93 
f 56/88/94 58/90/94 84/20/94 
f 85/22/95 84/20/95 58/90/95 
f 58/90/96 60/23/96 85/22/96 
f 86/24/97 85/22/97 60/23/97 
f 60/23/98 62/25/98 86/24/98 
f 86/24/99 62/25/99 64/26/99 
f 64/26/100 87/91/100 86/24/100 
f 87/91/101 64/26/101 66/28/101 
f 66/28/102 88/92/102 87/91/102 
f 88/92/103 66/28/103 68/93/103 
f 68/93/104 89/31/104 88/92/104 
f 89/31/105 68/93/105 70/94/105 
f 70/94/106 90/33/106 89/31/106 
f 90/33/107 70/94/107 72/34/107 
f 72/34/108 74/35/108 90/33/108 
f 74/95/109 35/96/109 33/97/109 
f 33/97/110 90/98/110 74/95/110 
f 89/99/111 90/98/111 33/97/111 
f 33/97/111 31/100/111 89/99/111 
f 88/101/112 89/99/112 31/100/112 
f 31/100/112 29/102/112 88/101/112 
f 87/103/113 88/101/113 29/102/113 
f 29/102/113 27/104/113 87/103/113 
f 86/105/114 87/103/114 27/104/114 
f 27/104/114 24/106/114 86/105/114 
f 85/107/115 86/105/115 24/106/115 
f 24/106/115 22/108/115 85/107/115 
f 84/109/116 85/107/116 22/108/116 
f 22/108/116 20/110/116 84/109/116 
f 83/111/117 84/109/117 20/110/117 
f 20/110/117 19/112/117 83/111/117 
f 82/113/118 83/111/118 19/112/118 
f 19/112/118 17/114/118 82/113/118 
f 81/115/119 82/113/119 17/114/119 
f 17/114/119 14/116/119 81/115/119 
f 79/117/120 81/115/120 14/116/120 
f 14/116/120 12/118/120 79/117/120 
f 80/119/121 79/117/121 12/118/121 
f 12/118/121 13/120/121 80/119/121 
f 91/121/122 80/119/122 13/120/122 
f 13/120/122 15/122/122 91/121/122 
f 91/121/123 15/122/123 2/123/123 
f 2/123/123 39/124/123 91/121/123 
f 2/123/123 36/125/123 39/124/123 
f 73/73/124 71/71/124 32/70/124 
f 32/70/125 34/72/125 73/73/125 
f 30/68/126 32/70/126 71/71/126 
f 71/71/127 69/69/127 30/68/127 
f 28/66/128 30/68/128 69/69/128 
f 69/69/129 67/67/129 28/66/129 
f 26/64/130 28/66/130 67/67/130 
f 67/67/131 65/65/131 26/64/131 
f 26/64/132 65/65/132 63/63/132 
f 63/63/133 25/62/133 26/64/133 
f 23/60/134 25/62/134 63/63/134 
f 63/63/135 61/61/135 23/60/135 
f 23/60/136 61/61/136 59/59/136 
f 59/59/137 21/58/137 23/60/137 
f 21/58/138 59/59/138 57/57/138 
f 57/57/139 18/56/139 21/58/139 
f 18/56/140 57/57/140 55/55/140 
f 55/55/141 16/54/141 18/56/141 
f 16/54/142 55/55/142 53/53/142 
f 53/53/143 9/52/143 16/54/143 
f 9/52/144 53/53/144 51/51/144 
f 51/51/145 11/48/145 9/52/145 
f 51/51/146 50/50/146 11/48/146 
f 50/50/147 49/49/147 11/48/147 
f 11/48/148 49/49/148 46/46/148 
f 46/46/149 7/47/149 11/48/149 
f 8/44/150 7/47/150 46/46/150 
f 46/46/151 45/45/151 8/44/151 
f 8/44/152 45/45/152 42/42/152 
f 42/42/153 4/43/153 8/44/153 
f 5/40/154 4/43/154 42/42/154 
f 42/42/155 41/41/155 5/40/155 
f 5/40/156 41/41/156 37/37/156 
f 37/37/157 1/38/157 5/40/157 
f 1/38/158 37/37/158 36/36/158 
f 36/36/159 2/39/159 1/38/159 
f 74/95/160 75/126/160 35/96/160 
f 73/73/161 34/72/161 35/127/161 
f 35/127/162 75/128/162 73/73/162 
f 92/129/163 93/130/163 94/131/163 
f 94/131/164 95/132/164 92/129/164 
f 94/131/163 93/130/163 96/133/163 
f 96/133/165 97/134/165 94/131/165 
f 98/135/166 94/131/166 97/134/166 
f 97/134/167 99/136/167 98/135/167 
f 100/137/168 99/136/168 97/134/168 
f 97/134/169 101/138/169 100/137/169 
f 101/138/170 97/134/170 96/133/170 
f 96/133/171 102/139/171 101/138/171 
f 101/138/172 102/139/172 103/140/172 
f 103/140/173 104/141/173 101/138/173 
f 101/138/174 104/141/174 105/142/174 
f 105/142/175 100/137/175 101/138/175 
f 106/143/176 95/132/176 94/131/176 
f 94/131/177 98/135/177 106/143/177 
f 107/143/178 108/132/178 109/131/178 
f 109/131/179 110/135/179 107/143/179 
f 111/136/179 110/135/179 109/131/179 
f 109/131/180 112/134/180 111/136/180 
f 112/134/181 109/131/181 113/130/181 
f 113/130/182 114/133/182 112/134/182 
f 112/134/183 114/133/183 115/139/183 
f 115/139/184 116/138/184 112/134/184 
f 111/136/185 112/134/185 116/138/185 
f 116/138/186 117/137/186 111/136/186 
f 118/142/187 117/137/187 116/138/187 
f 116/138/188 119/141/188 118/142/188 
f 116/138/189 115/139/189 120/140/189 
f 120/140/190 119/141/190 116/138/190 
f 109/131/191 108/132/191 121/129/191 
f 121/129/192 113/130/192 109/131/192 
f 105/144/193 104/145/193 119/146/193 
f 119/146/193 120/147/193 105/144/193 
f 118/148/194 119/146/194 104/145/194 
f 104/145/194 103/149/194 118/148/194 
f 103/149/195 102/150/195 117/151/195 
f 117/151/195 118/148/195 103/149/195 
f 111/152/196 117/151/196 102/150/196 
f 102/150/197 96/153/197 111/152/197 
f 111/152/198 96/153/198 93/154/198 
f 93/154/199 110/155/199 111/152/199 
f 110/155/200 93/154/200 92/156/200 
f 92/156/201 107/157/201 110/155/201 
f 92/156/202 95/158/202 108/159/202 
f 108/159/202 107/157/202 92/156/202 
f 121/160/203 108/159/203 95/158/203 
f 95/158/204 106/161/204 121/160/204 
f 121/160/205 106/161/205 122/162/205 
f 122/162/206 123/163/206 121/160/206 
f 124/164/207 125/165/207 99/166/207 
f 99/166/208 114/167/208 124/164/208 
f 115/168/209 114/167/209 99/166/209 
f 99/166/210 100/169/210 115/168/210 
f 120/170/211 115/168/211 100/169/211 
f 100/169/211 105/171/211 120/170/211 
f 125/165/212 124/164/212 123/163/212 
f 123/163/213 122/162/213 125/165/213 
f 98/172/214 125/173/214 122/174/214 
f 122/174/215 106/175/215 98/172/215 
f 98/172/216 99/176/216 125/173/216 
f 114/177/217 113/178/217 124/179/217 
f 124/179/218 113/178/218 121/180/218 
f 121/180/219 123/181/219 124/179/219 
f 76/77/220 80/85/220 91/182/220 
f 76/77/221 91/182/221 39/83/221 
# 242 faces

